# xmcd
#
# Track frame offsets:
#	150
#	18773
#	37425
#	58538
#	77185
#	94715
#	115538
#	135720
#	155960
#
# Disc length: 2341 seconds
#
# Revision: 1
# Processed by: cddbd v1.5.1PL0 Copyright (c) Steve Scherf et al.
# Submitted via: CDex 1.50Beta5
#
DISCID=73092309
DTITLE=財津和夫 - City Swimmer
DYEAR=1987
DGENRE=
TTITLE0=真夜中のルビー
TTITLE1=にせ者のシンデレラ
TTITLE2=Dreamless Nights
TTITLE3=City Swimmer
TTITLE4=僕のEntrancement
TTITLE5=都会の月
TTITLE6=償いの日々
TTITLE7=愛にふれたとき
TTITLE8=湾岸ビルヂング
EXTD=
EXTT0=
EXTT1=
EXTT2=
EXTT3=
EXTT4=
EXTT5=
EXTT6=
EXTT7=
EXTT8=
PLAYORDER=
